#tb 0: 1/25
0,          2,          2,        1,   152064, 0x502ec077
0,          4,          4,        1,   152064, 0x84807243
0,          6,          6,        1,   152064, 0xd7474a6e
0,          8,          8,        1,   152064, 0x793469bb
0,         10,         10,        1,   152064, 0xb7a0faf7
0,         12,         12,        1,   152064, 0x1d3d3cba
0,         14,         14,        1,   152064, 0xb62583de
0,         16,         16,        1,   152064, 0xc8422fb1
0,         18,         18,        1,   152064, 0x321dc699
0,         20,         20,        1,   152064, 0x7a34d350
0,         22,         22,        1,   152064, 0xaa4c302d
0,         24,         24,        1,   152064, 0x45fa7ab0
0,         26,         26,        1,   152064, 0xc7262e41
0,         28,         28,        1,   152064, 0x3550000c
0,         30,         30,        1,   152064, 0xf4bab54b
0,         32,         32,        1,   152064, 0xaccf9c1a
0,         34,         34,        1,   152064, 0x9bee20e9
0,         36,         36,        1,   152064, 0x47fb7720
0,         38,         38,        1,   152064, 0x12c63ffb
0,         40,         40,        1,   152064, 0xfa2b8b4d
0,         42,         42,        1,   152064, 0x279964bd
0,         44,         44,        1,   152064, 0xb8b01c7e
0,         46,         46,        1,   152064, 0x816fa010
0,         48,         48,        1,   152064, 0x59fe1c8c
0,         50,         50,        1,   152064, 0x13393fad
0,         52,         52,        1,   152064, 0x991a50a4
0,         54,         54,        1,   152064, 0x57df3eb7
0,         56,         56,        1,   152064, 0x744371df
0,         58,         58,        1,   152064, 0xe9f6d3ff
0,         60,         60,        1,   152064, 0xc506fba0
0,         62,         62,        1,   152064, 0x6295b90e
0,         64,         64,        1,   152064, 0xa19cee2d
0,         66,         66,        1,   152064, 0xf8c1b3ca
0,         68,         68,        1,   152064, 0x69f68ce0
0,         70,         70,        1,   152064, 0x80558bb6
0,         72,         72,        1,   152064, 0x27824fa5
0,         74,         74,        1,   152064, 0x27c929a1
0,         76,         76,        1,   152064, 0xc0fe06d1
0,         78,         78,        1,   152064, 0xc52bc58c
0,         80,         80,        1,   152064, 0x0a5363c7
0,         82,         82,        1,   152064, 0xd0f45a0d
0,         84,         84,        1,   152064, 0x274710f9
0,         86,         86,        1,   152064, 0x89d2d390
0,         88,         88,        1,   152064, 0x12a9bfb0
0,         90,         90,        1,   152064, 0x04501a93
0,         92,         92,        1,   152064, 0xf92cbbf4
0,         94,         94,        1,   152064, 0xf6d1b27d
0,         96,         96,        1,   152064, 0xe3e904c3
0,         98,         98,        1,   152064, 0x58f8516d
0,        100,        100,        1,   152064, 0x70370c2b
0,        102,        102,        1,   152064, 0xfeebc88c
0,        104,        104,        1,   152064, 0x974c6ed6
0,        106,        106,        1,   152064, 0x401bdcf2
0,        108,        108,        1,   152064, 0xfe61e278
0,        110,        110,        1,   152064, 0x96ba8bb9
0,        112,        112,        1,   152064, 0x988492fd
0,        114,        114,        1,   152064, 0xd1d913a9
0,        116,        116,        1,   152064, 0x6bc46f0e
0,        118,        118,        1,   152064, 0x695ef706
0,        120,        120,        1,   152064, 0x142045c9
0,        122,        122,        1,   152064, 0xb390ed87
0,        124,        124,        1,   152064, 0xb9e6d2e5
0,        126,        126,        1,   152064, 0xe348797f
0,        128,        128,        1,   152064, 0x1cbd29d6
0,        130,        130,        1,   152064, 0xbd7dd694
0,        132,        132,        1,   152064, 0x516873c3
0,        134,        134,        1,   152064, 0x27bba182
0,        136,        136,        1,   152064, 0x7541f920
0,        138,        138,        1,   152064, 0xfdf67042
0,        140,        140,        1,   152064, 0x6c3c7896
0,        142,        142,        1,   152064, 0xed86c467
0,        144,        144,        1,   152064, 0x4ea83ca2
0,        146,        146,        1,   152064, 0xa3e6725b
0,        148,        148,        1,   152064, 0x917f5f16
0,        150,        150,        1,   152064, 0x8cf2d2e1
0,        152,        152,        1,   152064, 0x57a8d116
0,        154,        154,        1,   152064, 0x0db267d4
0,        156,        156,        1,   152064, 0xce782ac5
0,        158,        158,        1,   152064, 0x1c9d8518
0,        160,        160,        1,   152064, 0x47598ac7
0,        162,        162,        1,   152064, 0xc5033d97
0,        164,        164,        1,   152064, 0xd7aaa3a4
0,        166,        166,        1,   152064, 0x078afc96
0,        168,        168,        1,   152064, 0xc9fe673d
0,        170,        170,        1,   152064, 0xe9284066
0,        172,        172,        1,   152064, 0xbc570982
0,        174,        174,        1,   152064, 0x0aac8574
0,        176,        176,        1,   152064, 0x098cbeee
0,        178,        178,        1,   152064, 0x19c36a9d
0,        180,        180,        1,   152064, 0x8fe4a893
0,        182,        182,        1,   152064, 0x0b652f17
0,        184,        184,        1,   152064, 0x10f2e6bf
0,        186,        186,        1,   152064, 0x7ce5634e
0,        188,        188,        1,   152064, 0x8fe4ac6c
0,        190,        190,        1,   152064, 0xcaba749e
0,        192,        192,        1,   152064, 0x5f8a0d5c
0,        194,        194,        1,   152064, 0xcaa66bbc
0,        196,        196,        1,   152064, 0xc87ae617
0,        198,        198,        1,   152064, 0xe8ef4dd7
0,        200,        200,        1,   152064, 0xdfca5a07
0,        202,        202,        1,   152064, 0x5f7eab7d
0,        204,        204,        1,   152064, 0x8a65ebbb
0,        206,        206,        1,   152064, 0x4beab4a0
0,        208,        208,        1,   152064, 0xb5e6ab30
0,        210,        210,        1,   152064, 0x8fe4f4d4
0,        212,        212,        1,   152064, 0x95bde1ca
0,        214,        214,        1,   152064, 0xcc5e3a53
0,        216,        216,        1,   152064, 0xf09f1dd7
0,        218,        218,        1,   152064, 0x10179672
0,        220,        220,        1,   152064, 0x4ad16184
0,        222,        222,        1,   152064, 0x9efa0e23
0,        224,        224,        1,   152064, 0x22f59522
0,        226,        226,        1,   152064, 0x4d38f09d
0,        228,        228,        1,   152064, 0x4c5ebf56
0,        230,        230,        1,   152064, 0xb19d5077
0,        232,        232,        1,   152064, 0xa98576b9
0,        234,        234,        1,   152064, 0x65324239
0,        236,        236,        1,   152064, 0x709e4031
0,        238,        238,        1,   152064, 0xf8e81681
0,        240,        240,        1,   152064, 0x058514e5
0,        242,        242,        1,   152064, 0xd1d1c806
0,        244,        244,        1,   152064, 0x0e4dde57
0,        246,        246,        1,   152064, 0x49e9c2bb
0,        248,        248,        1,   152064, 0x01417ce6
0,        250,        250,        1,   152064, 0xda7ebbf1
0,        252,        252,        1,   152064, 0xa22906b7
0,        254,        254,        1,   152064, 0x32e2df87
0,        256,        256,        1,   152064, 0x69917c8f
0,        258,        258,        1,   152064, 0xea8ed2cc
0,        260,        260,        1,   152064, 0x0b8d57f1
0,        262,        262,        1,   152064, 0x5f683bcd
0,        264,        264,        1,   152064, 0x5162fe2f
0,        266,        266,        1,   152064, 0x49c052f8
0,        268,        268,        1,   152064, 0x990b69ba
0,        270,        270,        1,   152064, 0xa6d4f99f
0,        272,        272,        1,   152064, 0xe79ef4da
0,        274,        274,        1,   152064, 0x5e8a3847
0,        276,        276,        1,   152064, 0x38b1e75f
0,        278,        278,        1,   152064, 0xf5c91bed
0,        280,        280,        1,   152064, 0xd59a6d26
0,        282,        282,        1,   152064, 0xc361de06
0,        284,        284,        1,   152064, 0x63ed2229
0,        286,        286,        1,   152064, 0xb8229205
0,        288,        288,        1,   152064, 0x7c6619af
0,        290,        290,        1,   152064, 0x4126b02f
0,        292,        292,        1,   152064, 0x9250b99b
0,        294,        294,        1,   152064, 0x589778f9
0,        296,        296,        1,   152064, 0xed1fa45b
0,        298,        298,        1,   152064, 0x700b6f32
0,        300,        300,        1,   152064, 0x0590df55
0,        302,        302,        1,   152064, 0x3e9c4018
0,        304,        304,        1,   152064, 0x957b8860
0,        306,        306,        1,   152064, 0x56161560
0,        308,        308,        1,   152064, 0xbc43bc3b
0,        310,        310,        1,   152064, 0x508d8632
0,        312,        312,        1,   152064, 0xbc5736d8
0,        314,        314,        1,   152064, 0xed7d3aef
0,        316,        316,        1,   152064, 0x1dcdda9f
0,        318,        318,        1,   152064, 0x8ef6d5c9
0,        320,        320,        1,   152064, 0x15466acc
0,        322,        322,        1,   152064, 0x45d4cf67
0,        324,        324,        1,   152064, 0x8c900b9d
0,        326,        326,        1,   152064, 0x747006e0
0,        328,        328,        1,   152064, 0xac920a0c
0,        330,        330,        1,   152064, 0xb8210c27
0,        332,        332,        1,   152064, 0x7dbb873a
0,        334,        334,        1,   152064, 0x0d4d7584
0,        336,        336,        1,   152064, 0xefb3fe60
0,        338,        338,        1,   152064, 0x905e2644
0,        340,        340,        1,   152064, 0x7c04e534
0,        342,        342,        1,   152064, 0x8889972a
0,        344,        344,        1,   152064, 0x21c7d8ad
0,        346,        346,        1,   152064, 0x1c641176
0,        348,        348,        1,   152064, 0xf71489a4
0,        350,        350,        1,   152064, 0xd7ac5555
0,        352,        352,        1,   152064, 0xb4609c6d
0,        354,        354,        1,   152064, 0xf5b2bd5e
0,        356,        356,        1,   152064, 0x9f43ce57
0,        358,        358,        1,   152064, 0x77642dd3
0,        360,        360,        1,   152064, 0x3e79565c
0,        362,        362,        1,   152064, 0x95f40b8e
0,        364,        364,        1,   152064, 0x3c8ca4d4
0,        366,        366,        1,   152064, 0xa02ac497
0,        368,        368,        1,   152064, 0x4c93b377
0,        370,        370,        1,   152064, 0x55f5ac68
0,        372,        372,        1,   152064, 0xf8652eca
0,        374,        374,        1,   152064, 0x56e94574
0,        376,        376,        1,   152064, 0x6d8302e1
0,        378,        378,        1,   152064, 0x29a57061
0,        380,        380,        1,   152064, 0x24e4cfdc
0,        382,        382,        1,   152064, 0xf5a5d62a
0,        384,        384,        1,   152064, 0x998870c1
0,        386,        386,        1,   152064, 0xa15b1f4e
0,        388,        388,        1,   152064, 0xb0ccb51f
0,        390,        390,        1,   152064, 0xeaaf59ab
0,        392,        392,        1,   152064, 0x7e2b4fe6
0,        394,        394,        1,   152064, 0x72299fea
0,        396,        396,        1,   152064, 0x769da8b2
0,        398,        398,        1,   152064, 0xefad7ef8
0,        400,        400,        1,   152064, 0x24819983
0,        402,        402,        1,   152064, 0x2aad32ab
0,        404,        404,        1,   152064, 0xc80cac79
0,        406,        406,        1,   152064, 0x1659d628
0,        408,        408,        1,   152064, 0xef941f66
0,        410,        410,        1,   152064, 0x0d7fcdb5
0,        412,        412,        1,   152064, 0x7c1853fa
0,        414,        414,        1,   152064, 0xb94c4d3c
0,        416,        416,        1,   152064, 0xc47adfc2
0,        418,        418,        1,   152064, 0x366a6729
0,        420,        420,        1,   152064, 0x7eb37b70
0,        422,        422,        1,   152064, 0xafd54c27
0,        424,        424,        1,   152064, 0x67b18636
0,        426,        426,        1,   152064, 0x93b22dcf
0,        428,        428,        1,   152064, 0xa64991f1
0,        430,        430,        1,   152064, 0xd32a7102
0,        432,        432,        1,   152064, 0xff665d1c
0,        434,        434,        1,   152064, 0xf107cc31
0,        436,        436,        1,   152064, 0xf5b25652
0,        438,        438,        1,   152064, 0x8caf783d
0,        440,        440,        1,   152064, 0x72f3eb00
0,        442,        442,        1,   152064, 0xb5aea5f8
0,        444,        444,        1,   152064, 0xee70e870
0,        446,        446,        1,   152064, 0x7c3a0156
0,        448,        448,        1,   152064, 0x871b6383
0,        450,        450,        1,   152064, 0x48d831ff
0,        452,        452,        1,   152064, 0xca233913
0,        454,        454,        1,   152064, 0xe14bc5eb
0,        456,        456,        1,   152064, 0x9b1d27e7
0,        458,        458,        1,   152064, 0xfb9637f7
0,        460,        460,        1,   152064, 0x0c022157
0,        462,        462,        1,   152064, 0x16d35fc9
0,        464,        464,        1,   152064, 0x6d935f71
0,        466,        466,        1,   152064, 0xae4066fa
0,        468,        468,        1,   152064, 0xcef94fdc
0,        470,        470,        1,   152064, 0xc234edb9
0,        472,        472,        1,   152064, 0x26a4f2e2
0,        474,        474,        1,   152064, 0xd29ac23e
0,        476,        476,        1,   152064, 0xb7604395
0,        478,        478,        1,   152064, 0x408084f6
0,        480,        480,        1,   152064, 0x0a02026c
0,        482,        482,        1,   152064, 0x78b33c7c
0,        484,        484,        1,   152064, 0xcb02b874
0,        486,        486,        1,   152064, 0xf566513b
0,        488,        488,        1,   152064, 0xb34e52b1
0,        490,        490,        1,   152064, 0xf55ff493
0,        492,        492,        1,   152064, 0xb0e8282a
0,        494,        494,        1,   152064, 0xe9510bbe
0,        496,        496,        1,   152064, 0x292e8c5a
0,        498,        498,        1,   152064, 0x62b9d2b0
0,        500,        500,        1,   152064, 0x3a8cc827
0,        502,        502,        1,   152064, 0x25cc465e
0,        504,        504,        1,   152064, 0xf2bc32e2
0,        506,        506,        1,   152064, 0x6141f914
0,        508,        508,        1,   152064, 0x1171256f
0,        510,        510,        1,   152064, 0x13cb2ded
0,        512,        512,        1,   152064, 0x3d4ca557
0,        514,        514,        1,   152064, 0xf2b9e72e
0,        516,        516,        1,   152064, 0x03f7547a
0,        518,        518,        1,   152064, 0xc7302955
0,        520,        520,        1,   152064, 0xe78a46d3
0,        522,        522,        1,   152064, 0x3726a270
0,        524,        524,        1,   152064, 0x2f65722a
0,        526,        526,        1,   152064, 0x55acce40
0,        528,        528,        1,   152064, 0xf6fa9db2
0,        530,        530,        1,   152064, 0x70a36937
0,        532,        532,        1,   152064, 0x9313742d
0,        534,        534,        1,   152064, 0x2eb14e53
0,        536,        536,        1,   152064, 0x3d47c9c3
0,        538,        538,        1,   152064, 0xd0a90348
0,        540,        540,        1,   152064, 0x6ad48088
0,        542,        542,        1,   152064, 0x68e64738
0,        544,        544,        1,   152064, 0x04c3735a
0,        546,        546,        1,   152064, 0x51d0593f
0,        548,        548,        1,   152064, 0x42cf2b48
0,        550,        550,        1,   152064, 0xa5496a0c
0,        552,        552,        1,   152064, 0x84c25549
0,        554,        554,        1,   152064, 0x96691600
0,        556,        556,        1,   152064, 0x423135db
0,        558,        558,        1,   152064, 0x8d2e08b6
0,        560,        560,        1,   152064, 0xaeb4c840
0,        562,        562,        1,   152064, 0xf3e71780
0,        564,        564,        1,   152064, 0x8858228b
0,        566,        566,        1,   152064, 0xf28613f8
0,        568,        568,        1,   152064, 0xb5327882
0,        570,        570,        1,   152064, 0xbb60bb85
0,        572,        572,        1,   152064, 0x345ab1c9
0,        574,        574,        1,   152064, 0x8aac2cba
0,        576,        576,        1,   152064, 0x7ce15b4c
0,        578,        578,        1,   152064, 0xc09c55c0
0,        580,        580,        1,   152064, 0x8482ddd6
0,        582,        582,        1,   152064, 0xab222a13
0,        584,        584,        1,   152064, 0xd39b0dea
0,        586,        586,        1,   152064, 0x6dab6e06
0,        588,        588,        1,   152064, 0xec0891bd
0,        590,        590,        1,   152064, 0x88bd9701
0,        592,        592,        1,   152064, 0xdf13072a
0,        594,        594,        1,   152064, 0x23b33081
0,        596,        596,        1,   152064, 0x63943137
0,        598,        598,        1,   152064, 0xab6a9052
0,        599,        599,        1,   152064, 0x05485494
